<?xml version="1.0" encoding="utf-8"?>
<!-- Generator: Adobe Illustrator 23.1.0, SVG Export Plug-In . SVG Version: 6.00 Build 0)  -->
<svg version="1.1" id="Layer_1" xmlns="http://www.w3.org/2000/svg" xmlns:xlink="http://www.w3.org/1999/xlink" x="0px" y="0px"
	 viewBox="0 0 1200 1200" enable-background="new 0 0 1200 1200" xml:space="preserve">
<g>
	<g>
		<path fill="#8E521C" d="M682.306,735.767c0-15.091,48.541-24.822,111.225-24.822s111.16,10.778,111.16,25.87
			c0,15.091-48.476,28.781-111.16,28.781S682.306,750.859,682.306,735.767z"/>
		<path fill="#AEC16B" d="M709.832,722.668c0.388-0.075,0.791-0.084,1.187-0.091c5.117-0.098,9.589-1.671,14.578-2.006
			c5.583-0.775,8.517-0.322,13.779-2.977c3.521-1.777,4.465-2.976,8.809-2.212c6.01,1.056,12.011,0.543,18.003,1.473
			c6.663,1.035,12.619,5.259,19.262,6.345c5.794,0.947,10.893-0.09,16.242-3.061c6.697-3.719,7.366-6.769,14.845-2.526
			c11.728,6.653,21.193,4.952,33.68,2.323c13.278-2.796,19.672,11.537,32.351,13.603c7.197,1.173,10.508,4.218,15.196,11.659
			c0.741,1.176,1.362,2.494,1.988,3.796c-21.465,9.792-58.173,16.603-100.959,16.603c-42.947,0-80.072-6.935-101.73-16.84
			c1.214-2.492-9.84-8.521-9.361-9.91c2.136-6.196,16.239-8.393,19.631-13.964c0.491-0.806,1.044-1.638,1.868-2.017
			C709.403,722.772,709.615,722.71,709.832,722.668z"/>
		<path fill="#AEC16B" d="M697.062,751.33c21.131,8.391,57.35,14.266,99.25,14.266c41.743,0,77.556-5.77,98.498-14.065
			c-0.61-1.103-1.216-2.22-1.939-3.216c-4.574-6.304-7.804-8.884-14.825-9.877c-12.37-1.75-18.608-13.893-31.563-11.524
			c-12.182,2.228-21.416,3.669-32.859-1.968c-7.297-3.594-7.949-1.011-14.483,2.14c-5.219,2.517-10.194,3.396-15.846,2.593
			c-6.481-0.92-12.292-4.498-18.792-5.375c-5.845-0.788-11.701-0.354-17.564-1.248c-7.884-1.203-5.203,1.206-12.717,3.743
			c-3.196,1.079-6.501,1.146-9.66,0.174c-3.788,2.502-7.929,3.639-12.749,2.403c-0.884-0.227-1.692-0.47-2.452-0.713
			c-4.966,4.954-6.887,10.569-9.672,17.584C699.222,747.422,698.247,749.219,697.062,751.33z M721.591,735.004
			c23.71-5.223,50.682,1.534,75.678,1.31c9.948-3.466,20.324-5.052,30.897-5.767c0.459-0.202,0.923-0.387,1.378-0.602
			c-0.455,0.215-0.92,0.4-1.378,0.602c2.767-0.187,5.547-0.317,8.336-0.405c-0.021-0.069-0.046-0.127-0.067-0.198
			c0.021,0.07,0.046,0.129,0.067,0.198c6.074-0.191,12.19-0.198,18.308-0.198c-1.585,3.491,3.388,3.371,5.116,5.453
			c1.392,0.673,2.735,1.401,4.071,2.137c-1.346,0.57-2.711,1.048-4.074,1.53c-0.15,0.318-0.301,0.638-0.52,1
			c0.219-0.362,0.37-0.682,0.52-1c-28.301,10.003-60.241,1.971-88.337,12.989c1.71,0.39,3.42,3.189,5.129,3.189
			c-4.594,5.059-13.781,7.589-16.078,2.53C749.154,740.063,735.372,742.593,721.591,735.004z"/>
		<polygon fill="#999896" points="793.476,944.254 822.729,936.143 738.712,568.585 709.459,576.696 		"/>
		<polygon fill="#999896" points="710.178,577.725 732.786,555.729 692.271,505.215 669.663,527.211 		"/>
		<polygon fill="#999896" points="711.45,577.922 738.712,568.585 732.786,555.729 710.15,561.025 		"/>
		<g>
			<path fill="#9E672D" d="M793.375,752.422c42.146,0,80.361-8.42,108.436-22.08c25.594,42.487,41.338,94.935,41.338,138.922v64.719
				c0,77.53-24.91,140.38-95.304,140.38H743.499c-70.395,0-99.898-62.85-99.898-140.38v-64.719
				c0-44.203,15.494-96.748,40.894-139.136C712.609,743.916,751.008,752.422,793.375,752.422z"/>
		</g>
		<g>
			<path fill="#AD7745" d="M716.174,742.119c22.766,6.543,49.099,10.303,77.201,10.303c1.317,0,2.618-0.033,3.926-0.049v321.99
				h-53.803c-9.919,0-18.997-1.289-27.325-3.65V742.119z"/>
		</g>
		<g>
			<path fill="#BA8152" d="M745.817,748.644c8.06,1.306,16.392,2.306,24.962,2.942v322.778h-24.962V748.644z"/>
		</g>
	</g>
	<g>
		<path fill="#BCBCBC" d="M525.873,300.337H285.808V90.302C285.808,68.044,303.852,50,326.11,50h159.461
			c22.258,0,40.302,18.044,40.302,40.302V300.337z"/>
		<path fill="#DBDBDB" d="M467.352,52.121C461.727,50.749,455.869,50,449.838,50H396.87v250.337h70.482V52.121z"/>
		<rect x="272.566" y="342.128" fill="#BCBCBC" width="266.549" height="718.147"/>
		<rect x="413.529" y="342.127" fill="#DBDBDB" width="97.393" height="718.147"/>
		<rect x="272.566" y="974.462" fill="#9B9B9B" width="266.549" height="85.812"/>
		<polygon fill="#9B9B9B" points="525.873,299.12 285.808,299.12 272.139,343.75 539.542,343.75 		"/>
		<rect x="285.808" y="212.8" fill="#6D6D6D" width="240.065" height="87.537"/>
	</g>
	<rect x="249.763" y="796.274" fill="#C49257" width="700.475" height="353.726"/>
	<rect x="564.976" y="169.919" fill="#C49257" width="70.047" height="861.885"/>
	<rect x="249.763" y="847.847" fill="#C1422D" width="700.475" height="93.8"/>
	<rect x="249.763" y="868.744" fill="#C4614D" width="700.475" height="52.004"/>
	<g>
		<path fill="#C1422D" d="M252.682,937.573c-0.664,0-1.326-0.278-1.81-0.825c-0.916-1.034-0.849-2.641,0.151-3.588l79.219-75.06
			c1-0.948,2.551-0.877,3.47,0.158c0.916,1.034,0.849,2.641-0.151,3.588l-79.219,75.06
			C253.869,937.352,253.275,937.573,252.682,937.573z"/>
	</g>
	<g>
		<path fill="#C1422D" d="M299.38,937.573c-0.664,0-1.326-0.278-1.81-0.825c-0.916-1.034-0.849-2.641,0.151-3.588l79.219-75.06
			c1-0.948,2.551-0.877,3.47,0.158c0.916,1.034,0.849,2.641-0.151,3.588l-79.219,75.06
			C300.567,937.352,299.972,937.573,299.38,937.573z"/>
	</g>
	<g>
		<path fill="#C1422D" d="M346.077,937.573c-0.664,0-1.326-0.278-1.81-0.825c-0.916-1.034-0.849-2.641,0.151-3.588l79.222-75.06
			c1.002-0.948,2.551-0.877,3.47,0.158c0.916,1.034,0.849,2.641-0.151,3.588l-79.222,75.06
			C347.264,937.352,346.67,937.573,346.077,937.573z"/>
	</g>
	<g>
		<path fill="#C1422D" d="M392.777,937.573c-0.664,0-1.326-0.278-1.81-0.825c-0.916-1.034-0.849-2.641,0.151-3.588l79.219-75.06
			c1-0.948,2.551-0.877,3.47,0.158c0.916,1.034,0.849,2.641-0.151,3.588l-79.219,75.06
			C393.964,937.352,393.37,937.573,392.777,937.573z"/>
	</g>
	<g>
		<path fill="#C1422D" d="M439.475,937.573c-0.664,0-1.326-0.278-1.81-0.825c-0.916-1.034-0.849-2.641,0.151-3.588l79.219-75.06
			c1-0.948,2.551-0.877,3.47,0.158c0.916,1.034,0.849,2.641-0.151,3.588l-79.219,75.06
			C440.662,937.352,440.067,937.573,439.475,937.573z"/>
	</g>
	<g>
		<path fill="#C1422D" d="M486.172,937.573c-0.664,0-1.326-0.278-1.81-0.825c-0.916-1.034-0.849-2.641,0.151-3.588l79.222-75.06
			c1.002-0.948,2.551-0.877,3.47,0.158c0.916,1.034,0.849,2.641-0.151,3.588l-79.222,75.06
			C487.359,937.352,486.765,937.573,486.172,937.573z"/>
	</g>
	<g>
		<path fill="#C1422D" d="M532.87,937.573c-0.664,0-1.326-0.278-1.81-0.825c-0.916-1.034-0.849-2.641,0.151-3.588l79.222-75.06
			c1-0.948,2.551-0.877,3.47,0.158c0.916,1.034,0.849,2.641-0.151,3.588l-79.222,75.06
			C534.057,937.352,533.462,937.573,532.87,937.573z"/>
	</g>
	<g>
		<path fill="#C1422D" d="M579.57,937.573c-0.664,0-1.326-0.278-1.81-0.825c-0.916-1.034-0.849-2.641,0.151-3.588l79.219-75.06
			c1-0.948,2.551-0.877,3.47,0.158c0.916,1.034,0.849,2.641-0.151,3.588l-79.219,75.06
			C580.757,937.352,580.162,937.573,579.57,937.573z"/>
	</g>
	<g>
		<path fill="#C1422D" d="M626.268,937.573c-0.664,0-1.326-0.278-1.81-0.825c-0.916-1.034-0.849-2.641,0.151-3.588l79.222-75.06
			c1.002-0.948,2.551-0.877,3.47,0.158c0.916,1.034,0.849,2.641-0.151,3.588l-79.222,75.06
			C627.454,937.352,626.86,937.573,626.268,937.573z"/>
	</g>
	<g>
		<path fill="#C1422D" d="M672.965,937.573c-0.664,0-1.326-0.278-1.81-0.825c-0.916-1.034-0.849-2.641,0.151-3.588l79.222-75.06
			c1-0.948,2.551-0.877,3.47,0.158c0.916,1.034,0.849,2.641-0.151,3.588l-79.222,75.06
			C674.152,937.352,673.557,937.573,672.965,937.573z"/>
	</g>
	<g>
		<path fill="#C1422D" d="M719.665,937.573c-0.664,0-1.326-0.278-1.81-0.825c-0.916-1.034-0.849-2.641,0.151-3.588l79.219-75.06
			c1-0.948,2.551-0.877,3.47,0.158c0.916,1.034,0.849,2.641-0.151,3.588l-79.219,75.06
			C720.852,937.352,720.257,937.573,719.665,937.573z"/>
	</g>
	<g>
		<path fill="#C1422D" d="M766.363,937.573c-0.664,0-1.326-0.278-1.81-0.825c-0.916-1.034-0.849-2.641,0.151-3.588l79.222-75.06
			c1.002-0.948,2.551-0.877,3.47,0.158c0.916,1.034,0.849,2.641-0.151,3.588l-79.222,75.06
			C767.549,937.352,766.955,937.573,766.363,937.573z"/>
	</g>
	<g>
		<path fill="#C1422D" d="M813.06,937.573c-0.664,0-1.326-0.278-1.81-0.825c-0.916-1.034-0.849-2.641,0.151-3.588l79.222-75.06
			c1-0.948,2.551-0.877,3.47,0.158c0.916,1.034,0.849,2.641-0.151,3.588l-79.222,75.06
			C814.247,937.352,813.652,937.573,813.06,937.573z"/>
	</g>
	<g>
		<path fill="#C1422D" d="M859.76,937.573c-0.664,0-1.326-0.278-1.81-0.825c-0.916-1.034-0.849-2.641,0.151-3.588l79.219-75.06
			c1-0.948,2.551-0.877,3.47,0.158c0.916,1.034,0.849,2.641-0.151,3.588l-79.219,75.06
			C860.947,937.352,860.352,937.573,859.76,937.573z"/>
	</g>
	<g>
		<path fill="#C1422D" d="M252.682,857.433c-0.664,0-1.326,0.278-1.81,0.825c-0.916,1.034-0.849,2.641,0.151,3.588l79.219,75.059
			c1,0.948,2.551,0.877,3.47-0.158c0.916-1.034,0.849-2.641-0.151-3.588L254.342,858.1
			C253.869,857.654,253.275,857.433,252.682,857.433z"/>
	</g>
	<g>
		<path fill="#C1422D" d="M299.38,857.433c-0.664,0-1.326,0.278-1.81,0.825c-0.916,1.034-0.849,2.641,0.151,3.588l79.219,75.059
			c1,0.948,2.551,0.877,3.47-0.158c0.916-1.034,0.849-2.641-0.151-3.588L301.039,858.1
			C300.567,857.654,299.972,857.433,299.38,857.433z"/>
	</g>
	<g>
		<path fill="#C1422D" d="M346.077,857.433c-0.664,0-1.326,0.278-1.81,0.825c-0.916,1.034-0.849,2.641,0.151,3.588l79.222,75.059
			c1.002,0.948,2.551,0.877,3.47-0.158c0.916-1.034,0.849-2.641-0.151-3.588L347.737,858.1
			C347.264,857.654,346.67,857.433,346.077,857.433z"/>
	</g>
	<g>
		<path fill="#C1422D" d="M392.777,857.433c-0.664,0-1.326,0.278-1.81,0.825c-0.916,1.034-0.849,2.641,0.151,3.588l79.219,75.059
			c1,0.948,2.551,0.877,3.47-0.158c0.916-1.034,0.849-2.641-0.151-3.588L394.437,858.1
			C393.964,857.654,393.37,857.433,392.777,857.433z"/>
	</g>
	<g>
		<path fill="#C1422D" d="M439.475,857.433c-0.664,0-1.326,0.278-1.81,0.825c-0.916,1.034-0.849,2.641,0.151,3.588l79.219,75.059
			c1,0.948,2.551,0.877,3.47-0.158c0.916-1.034,0.849-2.641-0.151-3.588L441.134,858.1
			C440.662,857.654,440.067,857.433,439.475,857.433z"/>
	</g>
	<g>
		<path fill="#C1422D" d="M486.172,857.433c-0.664,0-1.326,0.278-1.81,0.825c-0.916,1.034-0.849,2.641,0.151,3.588l79.222,75.059
			c1.002,0.948,2.551,0.877,3.47-0.158c0.916-1.034,0.849-2.641-0.151-3.588L487.832,858.1
			C487.359,857.654,486.765,857.433,486.172,857.433z"/>
	</g>
	<g>
		<path fill="#C1422D" d="M532.87,857.433c-0.664,0-1.326,0.278-1.81,0.825c-0.916,1.034-0.849,2.641,0.151,3.588l79.222,75.059
			c1,0.948,2.551,0.877,3.47-0.158c0.916-1.034,0.849-2.641-0.151-3.588L534.529,858.1
			C534.057,857.654,533.462,857.433,532.87,857.433z"/>
	</g>
	<g>
		<path fill="#C1422D" d="M579.57,857.433c-0.664,0-1.326,0.278-1.81,0.825c-0.916,1.034-0.849,2.641,0.151,3.588l79.219,75.059
			c1,0.948,2.551,0.877,3.47-0.158c0.916-1.034,0.849-2.641-0.151-3.588L581.229,858.1
			C580.757,857.654,580.162,857.433,579.57,857.433z"/>
	</g>
	<g>
		<path fill="#C1422D" d="M626.268,857.433c-0.664,0-1.326,0.278-1.81,0.825c-0.916,1.034-0.849,2.641,0.151,3.588l79.222,75.059
			c1.002,0.948,2.551,0.877,3.47-0.158c0.916-1.034,0.849-2.641-0.151-3.588L627.927,858.1
			C627.454,857.654,626.86,857.433,626.268,857.433z"/>
	</g>
	<g>
		<path fill="#C1422D" d="M672.965,857.433c-0.664,0-1.326,0.278-1.81,0.825c-0.916,1.034-0.849,2.641,0.151,3.588l79.222,75.059
			c1,0.948,2.551,0.877,3.47-0.158c0.916-1.034,0.849-2.641-0.151-3.588L674.624,858.1
			C674.152,857.654,673.557,857.433,672.965,857.433z"/>
	</g>
	<g>
		<path fill="#C1422D" d="M719.665,857.433c-0.664,0-1.326,0.278-1.81,0.825c-0.916,1.034-0.849,2.641,0.151,3.588l79.219,75.059
			c1,0.948,2.551,0.877,3.47-0.158c0.916-1.034,0.849-2.641-0.151-3.588L721.324,858.1
			C720.852,857.654,720.257,857.433,719.665,857.433z"/>
	</g>
	<g>
		<path fill="#C1422D" d="M766.363,857.433c-0.664,0-1.326,0.278-1.81,0.825c-0.916,1.034-0.849,2.641,0.151,3.588l79.222,75.059
			c1.002,0.948,2.551,0.877,3.47-0.158c0.916-1.034,0.849-2.641-0.151-3.588L768.022,858.1
			C767.549,857.654,766.955,857.433,766.363,857.433z"/>
	</g>
	<g>
		<path fill="#C1422D" d="M813.06,857.433c-0.664,0-1.326,0.278-1.81,0.825c-0.916,1.034-0.849,2.641,0.151,3.588l79.222,75.059
			c1,0.948,2.551,0.877,3.47-0.158c0.916-1.034,0.849-2.641-0.151-3.588L814.719,858.1
			C814.247,857.654,813.652,857.433,813.06,857.433z"/>
	</g>
	<g>
		<path fill="#C1422D" d="M859.76,857.433c-0.664,0-1.326,0.278-1.81,0.825c-0.916,1.034-0.849,2.641,0.151,3.588l79.219,75.059
			c1,0.948,2.551,0.877,3.47-0.158c0.916-1.034,0.849-2.641-0.151-3.588L861.419,858.1
			C860.947,857.654,860.352,857.433,859.76,857.433z"/>
	</g>
	<ellipse fill="#8E521C" cx="599.629" cy="206.155" rx="15.844" ry="17.255"/>
	<ellipse fill="#8E521C" cx="597.962" cy="818.705" rx="15.844" ry="17.255"/>
</g>
</svg>
