<?xml version="1.0" encoding="utf-8"?>
<!-- Generator: Adobe Illustrator 23.0.3, SVG Export Plug-In . SVG Version: 6.00 Build 0)  -->
<svg version="1.1" id="Capa_1" xmlns="http://www.w3.org/2000/svg" xmlns:xlink="http://www.w3.org/1999/xlink" x="0px" y="0px"
	 viewBox="0 0 1200 1200" enable-background="new 0 0 1200 1200" xml:space="preserve">
<g>
	<path d="M909.107,439.384c0,91.567,0.024,183.134-0.047,274.7c-0.024,46.162-0.047,92.3-0.071,138.462
		c-0.024,22.714-0.047,45.428-0.047,68.119c-0.024,14.599,0.379,29.221-0.402,43.796c-0.379,6.98-0.639,14.338-2.177,21.176
		c-1.112,4.992-1.301,11.712-3.644,16.302c-2.2,4.33-5.537,7.903-9.18,11.097c-7.358,6.483-16.018,11.286-24.56,15.947
		c-25.199,13.747-50.799,22.383-79.5,25.199c-29.907,2.958-61.115,1.68-90.928-2.13c-17.083-2.2-46.635-7.24-58.56-23.448
		c-6.436,8.873-13.889,16.799-22.454,22.904c-0.284,4.377-2.058,8.873-3.431,13.321c-3.171,10.245-4.661,21.484-5.513,32.155
		c-0.568,7.122,0.426,60.997-16.988,52.006c-0.994-0.521-1.822-1.254-2.816-1.751c-3.596-1.822-8.849-1.396-12.848-2.366
		c-5.111-1.23-10.127-2.816-15.072-4.661c-9.322-3.502-18.313-7.855-27.352-12.091c-19.331-9.062-34.142-25.483-54.514-32.51
		c-1.183-0.402-2.153-0.923-2.958-1.491c-0.26,0.118-0.497,0.237-0.781,0.355c-18.952,7.335-32.178,23.4-49.9,32.841
		c-18.503,9.867-36.863,18.668-57.945,21.224c-1.443,0.166-2.934,0.308-4.33-0.142c-9.417-3.171-11.594-23.566-12.351-31.563
		c-1.136-11.949-0.402-23.968-1.372-35.917c-1.183-14.315-3.265-29.67-7.358-43.465c-2.532-8.542-6.909-16.917-6.246-25.459
		c-15.427-17.556-28.062-37.62-35.515-59.909c-13.841-41.43-14.906-100.227,14.622-135.718c0.379-15.569,7.642-33.22,19.402-44.08
		c7.193-29.15,35.941-42.329,62.038-50.61c25.814-8.187,52.692-14.054,79.926-12.469c29.529,1.727,58.939,8.423,86.219,19.899
		c0.592-3.289,1.207-6.578,1.846-9.866c-2.484-2.059-4.756-4.496-6.672-7.453c-9.228-14.22-2.579-36.982,8.754-50.184
		c-0.71-0.899-1.183-2.082-1.325-3.549c-3.005-29.978-1.917-60.145-1.68-90.242c0.237-29.718,0.473-59.436,0.615-89.153
		c0.118-30.499,0.331-60.997,0.568-91.496c0.118-14.859,0.331-29.718,0.591-44.577c0.213-13.345-1.23-27.943,2.342-40.886
		c0.379-1.396,1.42-2.248,2.603-2.555c0.331-12.28,7.358-16.066,13.392-25.057c5.962-8.873,1.278-17.698,0.686-28.44
		c-0.497-8.778,4.424-19.449,13.203-19.378c-2.745-15.308-1.893-31.256,2.508-46.162c1.656-5.584,7.382-12.233,11.972-8.612
		c1.23-5.56,3.147-10.955,5.679-16.066c-10.576-3.265-19.141-12.398-21.72-23.187c-3.478-14.504,3.36-29.268,9.985-42.637
		c1.467-2.934,2.934-5.868,4.85-8.541c20.703-28.984,78.033-31.492,109.596-31.019c31.516,0.45,66.155-0.71,95.991,10.979
		c6.459,2.532,13.345,6.625,18.574,11.239c5.04,4.425,7.832,9.725,14.764,11.783c4.969,1.467,7.477,2.816,8.683,8.352
		c1.538,7.004,2.437,14.031,3.336,21.129c0.615,4.992,4.637,11.546,4.022,16.208c-0.402,3.194-3.383,5.347-6.081,7.098
		c-5.04,3.265-10.529,5.3-14.954,9.535c-0.828,0.804-1.68,1.704-2.011,2.839c-1.372,4.779,1.893,11.712,1.42,16.941
		c2.863-1.349,6.459-0.071,8.589,2.295c2.106,2.366,3.029,5.56,3.596,8.683c0.639,3.62,6.554,39.561,7.359,39.561
		c17.107-1.68,20.466,15.545,15.521,29.741c0.095,0.213,0.213,0.402,0.284,0.639c1.514,4.306,2.248,9.441,2.437,14.717
		c11.688,0.521,21.2,8.731,24.11,21.2c1.183,5.087,0.97,10.008-0.26,14.693C908.824,344.86,909.107,392.087,909.107,439.384z
		 M892.261,290.937c0.473-7.784-4.448-14.054-11.097-17.059c-0.473,3.407-1.136,6.672-2.011,9.559
		c-0.923,2.981-3.786,4.354-6.388,3.975c-10.221,7.95-19.97,15.285-32.084,20.703c-21.034,9.393-43.63,14.244-66.392,17.249
		c-33.362,4.425-67.859,5.442-101.41,2.981c-19.662-1.467-39.608-4.141-57.543-12.753c-8.825-4.259-21.342-12.28-23.661-22.572
		c-0.071-0.26-0.047-0.521-0.071-0.781c-1.491-2.177-2.437-4.992-3.052-7.974c-3.715,4.212-6.554,8.944-6.388,14.977
		c0.189,7.595,4.85,14.599,10.174,19.615c11.404,10.742,28.961,16.657,43.559,21.531c31.374,10.482,64.712,14.386,97.719,13.203
		c33.267-1.183,66.415-8.045,97.671-19.354c15.403-5.56,31.705-11.901,45.239-21.271
		C883.862,307.878,891.67,300.473,892.261,290.937z M891.646,319.283c-1.183,1.088-2.413,2.106-3.644,3.076
		c-8.542,6.578-18.219,12.185-28.487,17.012c1.467,45.168,2.603,90.313,3.265,135.528c0.71,46.659,2.981,93.815,0.402,140.426
		c-0.379,7.004-10.127,6.838-10.766,0c-4.33-46.47-3.313-93.791-3.383-140.426c-0.071-43.985,0.71-87.899,2.082-131.837
		c-10.718,4.448-21.886,8.139-33.007,11.239c2.342,57.566,9.938,114.731,13.747,172.179c1.964,29.789,3.218,59.601,3.951,89.437
		c0.355,14.149,0.639,28.274,0.544,42.4c-0.095,13.7,0.781,28.274-2.2,41.69c-1.278,5.773-10.647,5.915-11.807,0
		c-2.792-14.244-1.633-29.552-1.846-44.032c-0.189-14.125-0.237-28.275-0.473-42.4c-0.45-29.032-1.443-58.087-2.745-87.095
		c-2.532-56.644-8.991-113.122-7.69-169.884c-6.625,1.68-13.179,3.194-19.496,4.543c-35.136,7.429-71.668,9.796-107.348,5.395
		c-23.424-2.887-50.965-8.352-73.916-19.496c-1.609,34.284-0.899,68.805-0.521,103.066c0.426,37.124,1.68,73.585-4.969,110.259
		c-0.828,4.566-7.808,4.212-8.873,0c-4.117-16.563-0.426-34.923-0.379-51.841c0.047-19.473,0.071-38.945,0.26-58.418
		c0.379-36.13,2.319-71.976,5.466-107.916c-4.614-2.721-8.991-5.702-12.99-9.038c-3.786-3.147-7.004-6.743-9.559-10.6
		c0.118,7.548-0.237,15.167-0.118,22.383c0.26,14.859,0.45,29.718,0.568,44.577c0.237,29.718,0.426,59.436,0.568,89.153
		c0.118,30.499,0.355,60.997,0.615,91.496c0.213,27.375,1.041,54.751-1.207,82.055c1.562-0.166,3.218,0.284,4.732,1.585
		c0.923-7.477,4.259-15.45,6.649-20.892c6.128-13.889,14.22-26.737,22.359-39.513c9.488-14.883,19.97-29.15,32.77-41.383
		c11.286-10.789,26.547-25.483,42.873-27.494c5.229-0.639,10.434,1.136,15.687,1.372c2.082,0.095,4.188-0.047,6.199,0.521
		c3.407,0.923,3.928,3.194,4.756,6.317c0.402,1.443,1.065,2.792,1.254,4.283c0.615,5.04-8.707,11.262-11.83,14.433
		c-5.134,5.205-10.221,10.458-15.19,15.829c-9.866,10.742-19.283,21.933-27.541,33.977c-13.676,19.946-24.229,41.17-33.858,63.198
		c0.331-0.118,0.639-0.213,0.946-0.355c3.975-1.727,8.849,0.213,8.873,5.087c0.095,18.219-10.127,34.71-16.279,51.367
		c0.308,2.816-1.088,5.608-4.756,6.199c-2.484,0.402-5.04,0.757-7.666,1.065c-1.42,3.833-2.65,7.713-3.762,11.617
		c8.565,2.2,16.397,9.275,22.572,15.427c3.502,2.887,7.004,5.797,10.221,9.015c18.455,18.479,25.601,47.416,17.864,72.354
		c24.915,40.341,24.347,96.819,10.458,140.734c-3.904,12.327-9.322,25.672-16.373,38.094c7.619,4.235,14.315,9.63,23.022,12.469
		c10.671,3.478,21.981,5.347,33.125,6.459c22.904,2.295,46.328,3.147,69.302,2.011c-0.024-15.19-1.088-30.357-2.224-45.452
		c-1.254-16.586-3.313-33.906-0.237-50.35c0.805-4.33,7.832-4.283,8.683,0c3.265,16.373,3.596,33.693,4.638,50.35
		c0.923,14.906,1.491,29.694,0.828,44.577c5.726-0.568,11.404-1.372,16.988-2.413c8.163-54.916-0.308-112.294-2.839-167.399
		c-2.839-61.399-6.743-123.911-1.372-185.263c0.497-5.489,8.116-5.513,8.565,0c5.016,63.15,7.098,126.703,10.576,189.948
		c1.633,29.978,3.525,59.98,4.732,89.982c0.923,22.951,1.159,46.446-3.596,69.018c10.434-2.934,20.656-6.814,30.712-11.807
		c0.45-0.237,0.97-0.473,1.514-0.734c0.047-0.26,0.095-0.544,0.189-0.828c7.642-22.265,3.407-47.227,1.751-70.13
		c-2.153-29.883-1.443-60.169-1.585-90.1c-0.308-67.007-2.248-133.99-2.626-200.997c-0.047-7.051,9.89-6.625,10.695,0
		c8.258,68.758,7.075,138.888,7.761,208.025c0.308,30.735-0.142,61.518,1.562,92.229c0.97,17.533,2.958,37.479-2.721,54.68
		c6.98-3.62,15.332-7.358,18.834-14.859c0.804-1.775,1.467-3.62,2.2-5.442c0.568-1.396,1.136-2.792,1.869-4.093
		c5.253-9.488,0.733-25.695,0.568-36.745c-0.189-13.084,0.142-26.169,0.142-39.253c-0.024-25.057-0.024-50.113-0.047-75.146
		c-0.047-91.543-0.118-183.086-0.118-274.629C889.54,479.347,887.363,399.09,891.646,319.283z M864.909,247.165
		c2.248-3.265,4.661-8.21,4.235-12.304c-0.568-5.537-3.715-5.371-8.896-5.608c-0.828-0.024-1.585-0.213-2.248-0.521
		c-13.605,10.008-30.451,16.823-45.949,22.975c-27.659,10.955-56.951,17.84-86.811,17.745c-29.032-0.118-58.678-5.158-86.29-14.054
		c-9.725-3.147-29.789-7.264-35.775-17.604c-0.946-0.662-1.775-1.514-2.248-2.461c-0.189-0.402-0.355-0.828-0.544-1.23
		c-0.142,0.095-0.284,0.213-0.45,0.26c-7.737,3.029-4.354,12.185-1.42,17.627c3.904,7.24,10.671,12.043,17.911,15.592
		c12.942,6.317,27.872,9.535,41.903,12.375c28.629,5.773,58.276,6.649,87.332,4.141c29.741-2.579,59.412-8.518,87.284-19.307
		C843.094,260.865,858.379,256.582,864.909,247.165z M867.039,276.93c-0.45-4.661-0.237-9.417-0.26-14.173
		c-8.045,5.726-18.503,8.991-27.281,12.375c-15.947,6.128-32.51,11.026-49.167,14.812c-33.622,7.642-68.663,10.292-103.019,7.429
		c-28.345-2.342-64.191-6.791-87-25.459c-0.852-0.686-1.656-1.396-2.437-2.153c0.095,0.473,0.213,0.97,0.308,1.42
		c1.088,5.229,4.85,12.658,4.969,18.384c3.431,2.082,6.672,4.567,10.269,6.388c7.122,3.644,14.48,6.081,22.265,7.903
		c31.942,7.477,65.658,6.412,98.168,4.543c31.918-1.822,64.972-4.614,95.352-15.285C842.219,288.548,854.096,281.544,867.039,276.93
		z M849.246,121.716c-1.562-7.027-3.052-14.149-4.33-21.224c-34.71,21.295-73.75,32.344-114.66,32.817
		c-5.466,0.047-10.931-0.047-16.397-0.331c0.45,5.371,0.189,10.884,1.278,16.16c0.497,2.39,1.893,4.306,3.052,6.199
		c1.065-0.024,2.129,0,3.194,0c25.033-0.213,49.9-2.626,74.271-8.447c10.576-2.508,21.578-4.945,31.161-10.292
		C834.718,132.198,841.32,126.022,849.246,121.716z M847.542,216.69c-2.366-12.304-1.727-25.104-4.496-37.313
		c-0.379,0.071-0.757,0.166-1.136,0.237c-4.448,5.915-10.789,9.985-17.816,12.966c0.118,3.313,0.213,6.625,0.331,9.937
		c0.118,3.88,0.639,8.116-1.751,11.404c-1.443,2.035-3.999,2.035-5.466,0c-2.39-3.289-1.846-7.524-1.727-11.404
		c0.071-2.295,0.142-4.59,0.213-6.909c-3.36,1.041-6.767,1.893-10.103,2.65c0.047,0.213,0.071,0.402,0.095,0.639
		c0.118,3.999,0.047,7.997-0.166,12.02c-0.213,3.691-0.118,7.287-1.94,10.6c-1.585,2.887-5.773,2.011-6.72-0.875
		c-1.136-3.454-0.26-6.98,0.071-10.529c0.331-3.36,0.521-6.743,0.615-10.103c-0.639,0.118-1.301,0.26-1.917,0.379
		c-26.145,5.442-52.716,10.15-79.523,9.559c-28.961-0.615-55.768-9.157-82.954-18.313c-0.875-0.308-1.775-0.592-2.697-0.899
		c3.242,11.594,2.319,26.216-4.85,34.852c-1.538,1.846-4.874,0.828-5.371-1.42c-2.816-12.635,3.667-25.53-0.757-38.236
		c-1.065-0.71-2.058-1.491-2.981-2.366c-1.041,0.142-2.082,0.213-3.171,0.213c-1.017,8.352-2.177,16.633-2.224,25.151
		c-0.024,5.631,0.379,11.168,2.082,16.562c0.852,2.721,1.704,4.401,1.727,6.412c8.518,3.786,19.378,6.933,29.126,9.535
		c0.615-7.24,0.875-14.504,4.046-21.295c1.349-2.863,6.601-2.319,7.075,0.923c1.065,7.642,0.497,15.403-0.994,22.975
		c7.098,1.798,14.267,3.36,21.484,4.685c-0.284-9.322-0.189-18.834,2.579-27.659c1.065-3.36,6.767-3.975,7.453,0
		c1.656,9.654,0.828,19.567,0.213,29.387c15.143,2.271,30.451,3.431,45.783,3.029c15.924-0.402,31.634-3.076,46.966-7.264
		c0-4.306,0.095-8.612,0.331-12.895c0.284-4.756,0.189-10.008,2.461-14.267c1.325-2.484,4.779-2.129,6.199,0
		c4.164,6.317,2.437,15.9,1.159,24.134c7.548-2.413,14.954-5.134,22.241-8.163C823.29,229.987,836.422,224.309,847.542,216.69z
		 M832.873,166.861c-0.118-3.88-0.166-7.761-1.467-11.594c-0.071-0.213-0.095-0.45-0.142-0.686c-0.781,0.402-1.562,0.828-2.39,1.183
		c-11.12,4.898-23.187,7.666-35.018,10.269c-26.76,5.892-54.301,7.382-81.629,6.72c-26.476-0.639-52.314-3.809-77.773-11.333
		c-2.461-0.733-5.111-1.538-7.784-2.413c-0.166,3.029-0.781,6.199-0.521,9.086c0.521,5.442,0.946,5.418,6.72,7.453
		c8.896,3.147,18.077,5.868,27.091,8.707c22.099,6.956,44.127,10.884,67.338,10.198c21.72-0.639,43.039-4.472,64.239-8.873
		c11.949-2.461,31.895-4.827,38.898-16.184C831.122,168.257,831.95,167.452,832.873,166.861z M835.972,89.916
		c-2.887-4.377-14.173-11.499-16.421-12.635c-10.198-5.134-21.72-7.855-32.936-9.725c-21.768-3.644-44.34-3.999-66.368-4.046
		c-23.992-0.071-49.025,2.248-71.526,11.097c-6.53,2.555-13.155,5.679-18.952,9.677c-2.839,1.964-9.724,8.518-3.194,13.321
		c9.133,6.72,34.19,11.972,42.282,13.818c19.567,4.496,39.419,7.146,59.53,7.193C766.126,118.688,803.652,109.413,835.972,89.916z
		 M702.668,155.101c-1.917-7.287-0.899-16.491,0.686-22.904c-9.062-0.828-18.077-2.106-26.997-3.857
		c-0.402,2.484-0.379,5.513-0.402,7.027c-0.095,3.005,3.502,16.468,3.218,16.988c-0.142,0.26-0.45,0.663-0.781,1.041
		C686.461,154.25,694.529,154.817,702.668,155.101z M702.029,538.191c-2.295-0.284-4.567-0.757-6.791-1.23
		c-2.319-0.497-4.708-0.852-7.075-1.301c-6.27,4.07-13.297,7.004-19.425,11.404c-6.72,4.779-12.824,10.34-18.621,16.184
		c-10.837,10.979-19.851,23.329-28.133,36.319c-6.672,10.505-13.463,21.011-19.236,32.06c-3.289,6.294-6.459,12.895-8.636,19.662
		c-1.017,3.171-1.349,6.341-1.775,9.512c5.466,3.052,11.428,5.182,17.533,5.844c-0.095-1.254,0.071-2.579,0.663-3.951
		C630.456,617.383,659.795,566.75,702.029,538.191z M666.988,151.931c-4.827-6.175-5.04-17.816-1.349-25.908
		c-8.518-2.011-17.367-4.377-26.05-7.287c-0.379,7.642-4.898,17.675,0.875,23.803c1.301,1.372,1.822,2.958,1.775,4.496
		c1.846,0.426,3.62,0.828,5.324,1.23C654.022,149.754,660.505,150.961,666.988,151.931z M656.057,916.525
		c0.166-4.732,0.189-9.488,0.024-14.244c-0.615,0.662-1.23,1.349-1.893,1.987c-3.549,3.454-9.512,9.677-14.859,8.139
		c-1.301-0.379-2.626-1.491-2.887-2.91c-1.112-5.75,4.708-9.772,8.825-12.848c3.454-2.579,6.743-5.182,9.606-8.305
		c-0.97-6.791-2.461-13.463-4.306-20.23c-1.372-5.016-2.863-9.89-3.644-14.835c-7.548,12.02-18.692,20.892-31.35,27.612
		c3.383,4.164,6.365,8.636,8.494,13.581c1.917,4.472,4.614,11.546,1.467,15.924c-1.136,1.585-3.596,2.792-5.418,1.42
		c-3.904-2.91-4.425-7.832-5.939-12.28c-1.751-5.182-3.975-9.914-7.075-14.433c-0.024-0.024-0.024-0.047-0.047-0.095
		c-3.525,1.562-7.146,2.981-10.789,4.283c2.271,3.147,4.283,6.483,5.82,10.056c1.917,4.496,4.614,11.546,1.467,15.947
		c-1.136,1.562-3.596,2.768-5.418,1.42c-3.904-2.934-4.425-7.832-5.939-12.28c-1.443-4.283-3.218-8.234-5.537-12.02
		c-7.713,2.319-15.427,4.188-22.785,5.75c-39.371,8.423-78.979,11.712-119.013,5.939c-15.379-2.224-31.871-4.756-47.866-8.944
		c-1.538,2.461-2.532,5.205-4.519,7.406c-2.319,2.603-6.317,1.562-8.045-1.041c-2.035-3.052-1.68-6.862-0.379-10.198
		c-7.5-2.508-14.764-5.489-21.65-9.062c-1.94,3.833-3.383,7.832-4.803,11.949c-1.088,3.242-3.573,8.423-7.808,6.175
		c-4.472-2.366-3.052-9.18-1.704-12.942c1.349-3.715,3.502-7.004,6.01-10.008c-4.779-3.029-9.346-6.365-13.534-10.198
		c-9.417-8.565-17.793-19.26-22.265-31.303c-3.052,8.187-5.962,16.326-8.234,24.702c2.603,1.538,4.685,3.951,6.578,6.199
		c5.205,6.199,9.748,11.83,16.184,16.846c3.738,2.934,0.402,8.849-3.691,8.896c-8.447,0.095-13.912-6.578-18.526-12.777
		c-1.254-1.68-2.413-3.431-3.549-5.182c-0.355,2.295-0.663,4.638-0.875,7.004c-0.237,2.39-0.379,4.803-0.473,7.193
		c4.874,5.111,11.381,7.997,16.326,12.966c3.667,3.691-0.071,9.985-5.063,8.683c-4.141-1.112-7.879-3.194-11.002-5.963
		c0.946,13.652,3.809,27.162,8.352,40.081s10.576,25.08,17.935,36.414c-0.189-2.153,0-4.377,0.024-6.601
		c0.071-4.306,0.426-8.471,0.923-12.729c0.662-5.631,8.068-5.608,8.731,0c0.521,4.259,0.852,8.423,0.923,12.729
		c0.047,4.022,0.686,7.997-1.467,11.57c-0.97,1.585-2.674,2.248-4.306,2.082c3.738,5.158,7.737,10.15,12.067,14.93
		c3.454,3.833,7.004,7.642,10.671,11.31c-0.426-2.106,0.379-4.472,2.342-5.56c0.875-0.473,1.609-0.591,2.555-0.686
		c2.248-0.237,4.259,1.775,4.898,3.715c1.254,3.88,2.177,8.849,2.39,13.676c0.331,0.26,0.639,0.568,0.97,0.828
		c9.18,7.382,19.331,11.381,29.789,16.397c5.537,2.65,2.295,10.387-2.91,10.718c-6.601,0.426-13.132-1.065-19.425-3.809
		c-9.299-4.022-18.077-10.766-25.908-18.006c4.377,14.551,7.595,29.41,9.606,44.695c1.372,10.671,1.538,21.437,2.342,32.178
		c0.639,8.873,2.721,16.917,4.685,25.27c19.023-5.276,37.691-12.516,53.994-23.968c9.086-6.365,17.462-14.741,26.737-21.342
		c-7.832-1.278-15.427-3.383-22.241-6.838c-3.975-2.035-7.69-4.519-11.002-7.548c-3.88-3.526,1.112-9.559,5.466-7.075
		c18.905,10.742,44.174,9.157,65.209,8.731c12.564-0.237,25.175-1.136,37.455-3.88c11.641-2.579,21.697-8.542,32.959-11.854
		c4.07-1.207,7.974,3.644,5.608,7.287c-11.499,17.84-38.354,21.91-60.619,22.856c9.772,6.601,18.787,14.788,28.558,20.845
		c16.87,10.458,35.491,16.776,54.538,21.531c1.159-6.033,2.39-11.996,2.792-18.313c0.45-7.524,0.781-15.001,1.893-22.454
		c1.396-9.488,3.005-20.348,6.01-30.499c-6.341,2.011-13.108,3.099-20.372,3.005c-5.631-0.071-7.429-7.453-2.792-10.387
		c9.867-6.246,20.466-11.854,30.073-18.645c0.757-2.058,1.964-4.022,2.816-6.199c1.538-3.928,2.958-7.95,4.33-11.925
		c1.846-5.347,8.967-4.093,9.488,1.278c0.071,0.615,0.095,1.207,0.118,1.798c0.828-1.017,1.656-2.058,2.461-3.147
		c11.665-15.924,19.165-35.349,24.37-54.254c2.65-9.535,4.519-19.212,5.702-28.961c-3.289,2.768-7.761,5.915-11.83,5.655
		c-2.816-0.166-4.543-2.484-3.999-5.229c0.875-4.283,5.56-7.358,8.873-9.819C650.899,922.062,653.714,919.601,656.057,916.525z
		 M638.95,839.959c3.951-8.683,5.418-17.698,4.85-26.476c-13.061,24.938-43.891,42.045-70.461,45.854
		c-5.087,0.733-8.873-5.939-3.738-8.825c12.824-7.216,26.831-11.807,39.348-19.828c13.274-8.494,22.856-20.041,31.09-33.338
		c0.071-0.095,0.142-0.189,0.213-0.284c-3.242-8.707-8.565-16.752-15.474-23.471c-0.426,1.94-0.97,3.904-1.751,5.892
		c-8.376,21.697-29.434,35.657-50.161,44.032c-25.293,10.221-52.716,12.729-79.784,12.327c-23.968-0.355-49.593-0.781-73.182-5.56
		c-30.617-6.175-75.832-29.67-62.204-68.024c1.846-5.253,4.33-10.008,7.311-14.362c-8.778,7.713-16.231,17.367-18.266,29.055
		c-2.555,14.693,3.928,28.724,14.196,38.993c10.174,10.198,22.383,14.338,35.089,20.183c4.425,2.035,1.751,8.116-2.271,8.4
		c-28.109,2.011-54.514-23.826-59.861-51.154c-1.751,3.454-3.289,7.051-4.212,11.002c-2.461,10.458-1.041,21.247,3.928,30.783
		c8.825,16.917,25.293,29.268,42.66,36.319c6.933,2.816,14.22,5.276,21.673,7.429c0.095-0.047,0.189-0.071,0.284-0.118
		c1.609-0.662,3.62,0.189,4.779,1.467c21.508,5.773,44.387,9.18,65.516,10.908c32.155,2.626,63.576-0.497,95.069-7.264
		C591.226,877.958,626.173,868.044,638.95,839.959z M625.274,132.789c0.473-5.489,1.538-12.895,5.679-17.178
		c-6.885-2.697-13.487-5.892-19.591-9.677c-2.2,7.713-0.308,27.612-1.349,29.623c4.732,3.1,10.269,5.395,15.995,7.24
		C625.18,139.485,625.014,135.936,625.274,132.789z M617.679,694.091c2.39-5.395,4.661-10.837,5.915-16.562
		c-15.995,3.454-37.147,0.852-47.345-11.333c-5.205,11.949-15.001,25.554-8.305,37.739c7.619,13.912,28.677,12.351,42.187,10.269
		c0.804-3.573,2.011-7.027,3.36-10.434c-9.796,1.23-23.732-4.779-26.642-14.22c-0.875-2.91,1.917-4.827,4.472-4.448
		c4.164,0.591,7.926,3.549,11.712,5.276c4.235,1.917,8.612,2.153,13.108,3.1C616.733,693.594,617.23,693.831,617.679,694.091z
		 M602.3,784.641c8.778-11.239,12.28-25.483-2.035-30.475c-3.005,13.676-5.253,27.517-8.849,41.217
		C595.462,792.212,599.153,788.663,602.3,784.641z M597.213,728.518c-7.264,0.142-14.575-0.544-21.2-2.792
		c-3.691,18.668-6.459,37.526-11.759,55.839c-3.076,10.671-6.98,22.43-13.155,32.344c0.118-0.024,0.237-0.047,0.379-0.071
		c8.873-2.39,18.124-5.631,26.689-10.079c-2.011-1.538-3.147-4.046-2.106-7.193C583.466,774.301,585.453,749.079,597.213,728.518z
		 M556.706,761.311c1.633-8.281,3.052-16.61,4.472-24.938c-32.983-9.109-66.818-16.279-101.244-14.883
		c-30.546,1.254-67.338,10.434-83.901,38.874c-6.649,11.381-5.3,20.987,0.237,28.866c1.42-3.644,3.88-6.909,7.075-9.157
		c6.649-4.661,12.895-3.218,19.141-0.379c2.579-6.98,8.447-12.753,15.285-15.853c8.163-3.715,14.386-2.177,20.254,2.153
		c9.441-16.42,31.705-19.402,43.133-4.424c14.551-10.032,32.557-13.7,41.43,1.491C532.477,757.242,545.632,757.431,556.706,761.311z
		 M535.813,817.127c8.234-13.297,13.96-26.784,17.84-42.211c-8.21-3.525-22.43-4.945-28.014,3.005
		c-3.147,4.496-10.979,4.496-12.398-1.609c-4.259-18.195-19.07-10.86-29.576-1.798c-1.467,1.254-3.076,1.751-4.614,1.633
		c-2.248-0.189-4.283-1.727-5.3-4.259c-6.057-15.261-24.276-8.707-28.913,3.904c-1.23,3.36-5.726,5.3-8.494,2.248
		c-4.141-4.614-7.95-7.855-14.693-5.844c-6.01,1.798-11.168,7.95-11.191,14.386c0,3.762-3.928,5.584-7.051,4.07
		c-6.152-3.005-6.838-4.614-13.226-0.946c-4.425,2.532-5.466,3.88-6.53,7.311c11.286,9.228,28.204,15.048,40.602,17.485
		c1.467,0.284,2.958,0.568,4.448,0.804c18.219,3.076,37.573,3.36,55.887,4.046C501.671,819.99,518.919,819.824,535.813,817.127z"/>
	<path fill="#F9F4D7" d="M881.164,273.878c6.649,3.005,11.57,9.275,11.097,17.059c-0.591,9.535-8.4,16.941-15.734,22.028
		c-13.534,9.37-29.836,15.711-45.239,21.271c-31.256,11.31-64.404,18.171-97.671,19.354c-33.007,1.183-66.344-2.721-97.719-13.203
		c-14.599-4.874-32.155-10.789-43.559-21.531c-5.324-5.016-9.985-12.02-10.174-19.615c-0.166-6.033,2.674-10.766,6.388-14.977
		c0.615,2.981,1.562,5.797,3.052,7.974c0.024,0.26,0,0.521,0.071,0.781c2.319,10.292,14.835,18.313,23.661,22.572
		c17.935,8.612,37.881,11.286,57.543,12.753c33.551,2.461,68.048,1.443,101.41-2.981c22.762-3.005,45.357-7.855,66.392-17.249
		c12.114-5.418,21.862-12.753,32.084-20.703c2.603,0.379,5.466-0.994,6.388-3.975C880.029,280.55,880.691,277.285,881.164,273.878z"
		/>
	<path fill="#2E3A59" d="M888.002,322.359c1.23-0.97,2.461-1.988,3.644-3.076c-4.283,79.807-2.106,160.064-2.106,239.872
		c0,91.543,0.071,183.086,0.118,274.629c0.024,25.033,0.024,50.09,0.047,75.146c0,13.084-0.331,26.169-0.142,39.253
		c0.166,11.049,4.685,27.257-0.568,36.745c-0.734,1.301-1.301,2.697-1.869,4.093c-0.733,1.822-1.396,3.667-2.2,5.442
		c-3.502,7.5-11.854,11.239-18.834,14.859c5.679-17.201,3.691-37.147,2.721-54.68c-1.704-30.712-1.254-61.494-1.562-92.229
		c-0.686-69.136,0.497-139.267-7.761-208.025c-0.804-6.625-10.742-7.051-10.695,0c0.379,67.007,2.319,133.99,2.626,200.997
		c0.142,29.931-0.568,60.216,1.585,90.1c1.656,22.904,5.891,47.866-1.751,70.13c-0.095,0.284-0.142,0.568-0.189,0.828
		c-0.544,0.26-1.065,0.497-1.514,0.734c-10.056,4.992-20.277,8.873-30.712,11.807c4.756-22.572,4.519-46.067,3.596-69.018
		c-1.207-30.002-3.1-60.003-4.732-89.982c-3.478-63.245-5.56-126.797-10.576-189.948c-0.45-5.513-8.068-5.489-8.565,0
		c-5.371,61.352-1.467,123.864,1.372,185.263c2.532,55.106,11.002,112.483,2.839,167.399c-5.584,1.041-11.262,1.845-16.988,2.413
		c0.662-14.883,0.095-29.67-0.828-44.577c-1.041-16.657-1.372-33.977-4.638-50.35c-0.852-4.283-7.879-4.33-8.683,0
		c-3.076,16.444-1.017,33.764,0.237,50.35c1.136,15.095,2.2,30.262,2.224,45.452c-22.975,1.136-46.399,0.284-69.302-2.011
		c-11.144-1.112-22.454-2.981-33.125-6.459c-8.707-2.839-15.403-8.234-23.022-12.469c7.051-12.422,12.469-25.766,16.373-38.094
		c13.889-43.914,14.457-100.392-10.458-140.734c7.737-24.938,0.592-53.875-17.864-72.354c-3.218-3.218-6.72-6.128-10.221-9.015
		c-6.175-6.152-14.007-13.226-22.572-15.427c1.112-3.904,2.342-7.784,3.762-11.617c2.626-0.308,5.182-0.662,7.666-1.065
		c3.667-0.592,5.063-3.383,4.756-6.199c6.152-16.657,16.373-33.149,16.279-51.367c-0.024-4.874-4.898-6.814-8.873-5.087
		c-0.308,0.142-0.615,0.237-0.946,0.355c9.63-22.028,20.183-43.252,33.858-63.198c8.258-12.043,17.675-23.235,27.541-33.977
		c4.969-5.371,10.056-10.624,15.19-15.829c3.123-3.171,12.445-9.393,11.83-14.433c-0.189-1.491-0.852-2.839-1.254-4.283
		c-0.828-3.123-1.349-5.395-4.756-6.317c-2.011-0.568-4.117-0.426-6.199-0.521c-5.253-0.237-10.458-2.011-15.687-1.372
		c-16.326,2.011-31.587,16.704-42.873,27.494c-12.8,12.233-23.282,26.5-32.77,41.383c-8.139,12.777-16.231,25.625-22.359,39.513
		c-2.39,5.442-5.726,13.416-6.649,20.892c-1.514-1.301-3.171-1.751-4.732-1.585c2.248-27.304,1.42-54.68,1.207-82.055
		c-0.26-30.499-0.497-60.997-0.615-91.496c-0.142-29.718-0.331-59.436-0.568-89.153c-0.118-14.859-0.308-29.718-0.568-44.577
		c-0.118-7.216,0.237-14.835,0.118-22.383c2.555,3.857,5.773,7.453,9.559,10.6c3.999,3.336,8.376,6.317,12.99,9.038
		c-3.147,35.941-5.087,71.786-5.466,107.916c-0.189,19.473-0.213,38.945-0.26,58.418c-0.047,16.917-3.738,35.278,0.379,51.841
		c1.065,4.212,8.045,4.566,8.873,0c6.649-36.674,5.395-73.135,4.969-110.259c-0.379-34.261-1.088-68.782,0.521-103.066
		c22.951,11.144,50.492,16.61,73.916,19.496c35.68,4.401,72.212,2.035,107.348-5.395c6.317-1.349,12.871-2.863,19.496-4.543
		c-1.301,56.762,5.158,113.24,7.69,169.884c1.301,29.008,2.295,58.063,2.745,87.095c0.237,14.125,0.284,28.274,0.473,42.4
		c0.213,14.48-0.946,29.789,1.846,44.032c1.159,5.915,10.529,5.773,11.807,0c2.981-13.416,2.106-27.991,2.2-41.69
		c0.095-14.125-0.189-28.251-0.544-42.4c-0.733-29.836-1.987-59.649-3.951-89.437c-3.809-57.448-11.404-114.612-13.747-172.179
		c11.121-3.1,22.288-6.791,33.007-11.239c-1.372,43.938-2.153,87.852-2.082,131.837c0.071,46.635-0.946,93.956,3.383,140.426
		c0.639,6.838,10.387,7.004,10.766,0c2.579-46.612,0.308-93.767-0.402-140.426c-0.663-45.216-1.798-90.36-3.265-135.528
		C869.783,334.544,879.461,328.936,888.002,322.359z M636.821,477.123c2.224-11.759-0.45-24.796-1.278-36.698
		c-0.946-13.321-1.349-26.666-0.946-40.034c0.213-6.649-10.008-6.601-10.316,0c-0.639,13.345-0.473,26.689,0.237,40.034
		c0.615,11.641,0.402,25.814,4.85,36.698C630.645,480.246,636.04,481.335,636.821,477.123z"/>
	<path fill="#F9F4D7" d="M869.145,234.862c0.426,4.093-1.987,9.038-4.235,12.304c-6.53,9.417-21.815,13.7-31.966,17.627
		c-27.872,10.789-57.543,16.728-87.284,19.307c-29.055,2.508-58.702,1.633-87.332-4.141c-14.031-2.839-28.961-6.057-41.903-12.375
		c-7.24-3.549-14.007-8.352-17.911-15.592c-2.934-5.442-6.317-14.599,1.42-17.627c0.166-0.047,0.308-0.166,0.45-0.26
		c0.189,0.402,0.355,0.828,0.544,1.23c0.473,0.946,1.301,1.798,2.248,2.461c5.986,10.34,26.05,14.457,35.775,17.604
		c27.612,8.896,57.259,13.936,86.29,14.054c29.86,0.095,59.152-6.791,86.811-17.745c15.498-6.152,32.344-12.966,45.949-22.975
		c0.662,0.308,1.42,0.497,2.248,0.521C865.43,229.491,868.577,229.325,869.145,234.862z"/>
	<path fill="#C1BCA3" d="M866.779,262.757c0.024,4.756-0.189,9.512,0.26,14.173c-12.942,4.614-24.82,11.617-37.833,16.184
		c-30.38,10.671-63.434,13.463-95.352,15.285c-32.51,1.869-66.226,2.934-98.168-4.543c-7.784-1.822-15.143-4.259-22.265-7.903
		c-3.596-1.822-6.838-4.306-10.269-6.388c-0.118-5.726-3.88-13.155-4.969-18.384c-0.095-0.45-0.213-0.946-0.308-1.42
		c0.781,0.757,1.585,1.467,2.437,2.153c22.809,18.668,58.655,23.116,87,25.459c34.355,2.863,69.397,0.213,103.019-7.429
		c16.657-3.786,33.22-8.683,49.167-14.812C848.276,271.748,858.734,268.483,866.779,262.757z"/>
	<path fill="#2E3A59" d="M844.916,100.493c1.278,7.075,2.768,14.196,4.33,21.224c-7.926,4.306-14.528,10.482-22.43,14.883
		c-9.583,5.347-20.585,7.784-31.161,10.292c-24.37,5.821-49.238,8.234-74.271,8.447c-1.065,0-2.13-0.024-3.194,0
		c-1.159-1.893-2.555-3.809-3.052-6.199c-1.088-5.276-0.828-10.789-1.278-16.16c5.466,0.284,10.931,0.379,16.397,0.331
		C771.166,132.837,810.206,121.787,844.916,100.493z"/>
	<path fill="#DDB843" d="M843.047,179.377c2.768,12.209,2.129,25.009,4.496,37.313c-11.121,7.619-24.252,13.297-36.508,18.337
		c-7.287,3.029-14.693,5.75-22.241,8.163c1.278-8.234,3.005-17.816-1.159-24.134c-1.42-2.129-4.874-2.484-6.199,0
		c-2.271,4.259-2.177,9.512-2.461,14.267c-0.237,4.283-0.331,8.589-0.331,12.895c-15.332,4.188-31.043,6.862-46.966,7.264
		c-15.332,0.402-30.641-0.757-45.783-3.029c0.615-9.819,1.443-19.733-0.213-29.387c-0.686-3.975-6.388-3.36-7.453,0
		c-2.768,8.825-2.863,18.337-2.579,27.659c-7.216-1.325-14.386-2.887-21.484-4.685c1.491-7.571,2.058-15.332,0.994-22.975
		c-0.473-3.242-5.726-3.786-7.075-0.923c-3.171,6.791-3.431,14.054-4.046,21.295c-9.748-2.603-20.608-5.75-29.126-9.535
		c-0.024-2.011-0.875-3.691-1.727-6.412c-1.704-5.395-2.106-10.931-2.082-16.562c0.047-8.518,1.207-16.799,2.224-25.151
		c1.088,0,2.129-0.071,3.171-0.213c0.923,0.875,1.917,1.656,2.981,2.366c4.425,12.706-2.058,25.601,0.757,38.236
		c0.497,2.248,3.833,3.265,5.371,1.42c7.169-8.636,8.092-23.258,4.85-34.852c0.923,0.308,1.822,0.592,2.697,0.899
		c27.186,9.157,53.994,17.698,82.954,18.313c26.808,0.592,53.378-4.117,79.523-9.559c0.615-0.118,1.278-0.26,1.917-0.379
		c-0.095,3.36-0.284,6.743-0.615,10.103c-0.331,3.549-1.207,7.075-0.071,10.529c0.946,2.887,5.134,3.762,6.72,0.875
		c1.822-3.313,1.727-6.909,1.94-10.6c0.213-4.022,0.284-8.021,0.166-12.02c-0.024-0.237-0.047-0.426-0.095-0.639
		c3.336-0.757,6.743-1.609,10.103-2.65c-0.071,2.319-0.142,4.614-0.213,6.909c-0.118,3.88-0.663,8.116,1.727,11.404
		c1.467,2.035,4.022,2.035,5.466,0c2.39-3.289,1.869-7.524,1.751-11.404c-0.118-3.313-0.213-6.625-0.331-9.937
		c7.027-2.981,13.368-7.051,17.816-12.966C842.29,179.543,842.668,179.448,843.047,179.377z"/>
	<path fill="#C1BCA3" d="M831.406,155.267c1.301,3.833,1.349,7.713,1.467,11.594c-0.923,0.592-1.751,1.396-2.437,2.532
		c-7.004,11.357-26.949,13.723-38.898,16.184c-21.2,4.401-42.518,8.234-64.239,8.873c-23.211,0.686-45.239-3.242-67.338-10.198
		c-9.015-2.839-18.195-5.56-27.091-8.707c-5.773-2.035-6.199-2.011-6.72-7.453c-0.26-2.887,0.355-6.057,0.521-9.086
		c2.674,0.875,5.324,1.68,7.784,2.413c25.459,7.524,51.296,10.695,77.773,11.333c27.328,0.663,54.869-0.828,81.629-6.72
		c11.83-2.603,23.897-5.371,35.018-10.269c0.828-0.355,1.609-0.781,2.39-1.183C831.311,154.817,831.335,155.054,831.406,155.267z"/>
	<path fill="#2E3A59" d="M819.552,77.281c2.248,1.136,13.534,8.258,16.421,12.635c-32.32,19.496-69.846,28.771-107.585,28.7
		c-20.112-0.047-39.963-2.697-59.53-7.193c-8.092-1.846-33.149-7.098-42.282-13.818c-6.53-4.803,0.355-11.357,3.194-13.321
		c5.797-3.999,12.422-7.122,18.952-9.677c22.501-8.849,47.534-11.168,71.526-11.097c22.028,0.047,44.6,0.402,66.368,4.046
		C797.831,69.426,809.354,72.147,819.552,77.281z M750.108,102.338c4.164-0.97,3.147-7.217-0.994-7.311
		c-12.919-0.26-25.885,0.757-38.827,0.544c-14.741-0.26-28.677-2.745-43.181-4.992c-3.431-0.544-6.601,1.065-2.91-2.058
		c2.058-1.751,5.986-2.271,8.471-3.052c6.246-1.964,12.209-3.573,18.716-4.472c14.315-1.987,29.221-2.366,43.512-0.118
		c3.691,0.568,5.395-4.732,1.585-5.75c-19.023-5.182-37.857-2.91-57.093-0.166c-7.784,1.112-28.771,3.218-27.565,15.379
		c1.23,12.398,25.743,13.321,34.474,14.291C707.069,106.905,729.641,107.212,750.108,102.338z"/>
	<path d="M749.114,95.027c4.141,0.095,5.158,6.341,0.994,7.311c-20.466,4.874-43.039,4.567-63.813,2.295
		c-8.731-0.97-33.243-1.893-34.474-14.291c-1.207-12.162,19.78-14.267,27.565-15.379c19.236-2.745,38.07-5.016,57.093,0.166
		c3.809,1.017,2.106,6.317-1.585,5.75c-14.291-2.248-29.197-1.869-43.512,0.118c-6.507,0.899-12.469,2.508-18.716,4.472
		c-2.484,0.781-6.412,1.301-8.471,3.052c-3.691,3.123-0.521,1.514,2.91,2.058c14.504,2.248,28.44,4.732,43.181,4.992
		C723.229,95.784,736.195,94.767,749.114,95.027z"/>
	<path fill="#2E3A59" d="M703.354,132.198c-1.585,6.412-2.603,15.616-0.686,22.904c-8.139-0.284-16.208-0.852-24.276-1.704
		c0.331-0.379,0.639-0.781,0.781-1.041c0.284-0.521-3.313-13.983-3.218-16.988c0.024-1.514,0-4.543,0.402-7.027
		C685.278,130.092,694.292,131.37,703.354,132.198z"/>
	<path fill="#C1BCA3" d="M695.239,536.961c2.224,0.473,4.496,0.946,6.791,1.23c-42.234,28.558-71.574,79.192-91.496,124.502
		c-0.592,1.372-0.757,2.697-0.663,3.951c-6.104-0.663-12.067-2.792-17.533-5.844c0.426-3.171,0.757-6.341,1.775-9.512
		c2.177-6.767,5.347-13.368,8.636-19.662c5.773-11.049,12.564-21.555,19.236-32.06c8.281-12.99,17.296-25.341,28.133-36.319
		c5.797-5.844,11.901-11.404,18.621-16.184c6.128-4.401,13.155-7.335,19.425-11.404C690.53,536.109,692.92,536.464,695.239,536.961z
		"/>
	<path fill="#2E3A59" d="M665.639,126.022c-3.691,8.092-3.478,19.733,1.349,25.908c-6.483-0.97-12.966-2.177-19.425-3.667
		c-1.704-0.402-3.478-0.804-5.324-1.23c0.047-1.538-0.473-3.123-1.775-4.496c-5.773-6.128-1.254-16.16-0.875-23.803
		C648.272,121.645,657.121,124.011,665.639,126.022z"/>
	<path fill="#93684C" d="M656.08,902.281c0.166,4.756,0.142,9.512-0.024,14.244c-2.342,3.076-5.158,5.537-8.305,7.832
		c-3.313,2.461-7.997,5.537-8.873,9.819c-0.544,2.745,1.183,5.063,3.999,5.229c4.07,0.26,8.542-2.887,11.83-5.655
		c-1.183,9.748-3.052,19.425-5.702,28.961c-5.205,18.905-12.706,38.33-24.37,54.254c-0.804,1.088-1.633,2.129-2.461,3.147
		c-0.024-0.591-0.047-1.183-0.118-1.798c-0.521-5.371-7.642-6.625-9.488-1.278c-1.372,3.975-2.792,7.997-4.33,11.925
		c-0.852,2.177-2.058,4.141-2.816,6.199c-9.606,6.791-20.206,12.398-30.073,18.645c-4.638,2.934-2.839,10.316,2.792,10.387
		c7.264,0.095,14.031-0.994,20.372-3.005c-3.005,10.15-4.614,21.011-6.01,30.499c-1.112,7.453-1.443,14.93-1.893,22.454
		c-0.402,6.317-1.633,12.28-2.792,18.313c-19.047-4.756-37.668-11.073-54.538-21.531c-9.772-6.057-18.787-14.244-28.558-20.845
		c22.265-0.946,49.12-5.016,60.619-22.856c2.366-3.644-1.538-8.494-5.608-7.287c-11.263,3.313-21.318,9.275-32.959,11.854
		c-12.28,2.745-24.891,3.644-37.455,3.88c-21.034,0.426-46.304,2.011-65.209-8.731c-4.354-2.484-9.346,3.549-5.466,7.075
		c3.313,3.029,7.027,5.513,11.002,7.548l-1.656,3.147c-0.426-0.402-0.923-0.71-1.538-0.875c-7.5-1.917-16.562,5.324-23.022,8.731
		c-4.614,2.413-8.896,5.087-12.942,8.068c-1.798-13.652-6.625-26.973-6.578-40.791c0-3.928-2.697-5.797-5.56-5.797l2.082-4.472
		c6.294,2.745,12.824,4.235,19.425,3.809c5.205-0.331,8.447-8.068,2.91-10.718c-10.458-5.016-20.608-9.015-29.789-16.397
		c-0.331-0.26-0.639-0.568-0.97-0.828c-0.213-4.827-1.136-9.795-2.39-13.676c-0.639-1.94-2.65-3.951-4.898-3.715
		c-0.946,0.095-1.68,0.213-2.555,0.686c-1.964,1.088-2.768,3.454-2.342,5.56c-3.667-3.667-7.216-7.477-10.671-11.31
		c-4.33-4.779-8.329-9.772-12.067-14.93c1.633,0.166,3.336-0.497,4.306-2.082c2.153-3.573,1.514-7.548,1.467-11.57
		c-0.071-4.306-0.402-8.471-0.923-12.729c-0.663-5.608-8.068-5.631-8.731,0c-0.497,4.259-0.852,8.423-0.923,12.729
		c-0.024,2.224-0.213,4.448-0.024,6.601c-7.358-11.333-13.392-23.495-17.935-36.414s-7.406-26.429-8.352-40.081
		c3.123,2.768,6.862,4.85,11.002,5.963c4.992,1.301,8.731-4.992,5.063-8.683c-4.945-4.969-11.452-7.855-16.326-12.966
		c0.095-2.39,0.237-4.803,0.473-7.193c0.213-2.366,0.521-4.708,0.875-7.004c1.136,1.751,2.295,3.502,3.549,5.182
		c4.614,6.199,10.079,12.871,18.526,12.777c4.093-0.047,7.429-5.963,3.691-8.896c-6.436-5.016-10.979-10.647-16.184-16.846
		c-1.893-2.248-3.975-4.661-6.578-6.199c2.271-8.376,5.182-16.515,8.234-24.702c4.472,12.043,12.848,22.738,22.265,31.303
		c4.188,3.833,8.754,7.169,13.534,10.198c-2.508,3.005-4.661,6.294-6.01,10.008c-1.349,3.762-2.768,10.576,1.704,12.942
		c4.235,2.248,6.72-2.934,7.808-6.175c1.42-4.117,2.863-8.116,4.803-11.949c6.885,3.573,14.149,6.554,21.65,9.062
		c-1.301,3.336-1.656,7.146,0.379,10.198c1.727,2.603,5.726,3.644,8.045,1.041c1.987-2.2,2.981-4.945,4.519-7.406
		c15.995,4.188,32.486,6.72,47.866,8.944c40.034,5.773,79.642,2.484,119.013-5.939c7.358-1.562,15.072-3.431,22.785-5.75
		c2.319,3.786,4.093,7.737,5.537,12.02c1.514,4.448,2.035,9.346,5.939,12.28c1.822,1.349,4.283,0.142,5.418-1.42
		c3.147-4.401,0.45-11.452-1.467-15.947c-1.538-3.573-3.549-6.909-5.82-10.056c3.644-1.301,7.264-2.721,10.789-4.283
		c0.024,0.047,0.024,0.071,0.047,0.095c3.1,4.519,5.324,9.251,7.075,14.433c1.514,4.448,2.035,9.37,5.939,12.28
		c1.822,1.372,4.283,0.166,5.418-1.42c3.147-4.377,0.45-11.452-1.467-15.924c-2.129-4.945-5.111-9.417-8.494-13.581
		c12.658-6.72,23.803-15.592,31.35-27.612c0.781,4.945,2.271,9.819,3.644,14.835c1.846,6.767,3.336,13.439,4.306,20.23
		c-2.863,3.123-6.152,5.726-9.606,8.305c-4.117,3.076-9.937,7.098-8.825,12.848c0.26,1.42,1.585,2.532,2.887,2.91
		c5.347,1.538,11.31-4.685,14.859-8.139C654.85,903.63,655.465,902.944,656.08,902.281z M626.954,957.222
		c5.915-7.288,3.431-19.804,1.396-28.204c-1.609-6.625-11.12-3.715-10.032,2.745c1.396,8.258-1.704,18.503,3.833,25.459
		C623.216,958.57,625.889,958.523,626.954,957.222z M627.617,997.232c1.727-4.637,1.538-9.724,0.875-14.528
		c-0.852-6.128-10.363-4.377-10.505,1.42c-0.095,3.691-1.23,6.933-2.366,10.411c-1.112,3.336-2.508,6.649-0.781,10.008
		c0.639,1.254,2.224,2.153,3.62,2.082C623.405,1006.341,626.079,1001.42,627.617,997.232z M604.973,962.096
		c5.915-7.287,3.431-19.804,1.396-28.204c-1.609-6.625-11.12-3.715-10.032,2.768c1.396,8.234-1.704,18.479,3.833,25.435
		C601.235,963.444,603.909,963.421,604.973,962.096z M605.636,1002.106c1.727-4.638,1.538-9.701,0.875-14.528
		c-0.852-6.128-10.363-4.354-10.505,1.42c-0.095,3.715-1.23,6.933-2.366,10.411c-1.112,3.36-2.508,6.672-0.781,10.032
		c0.639,1.23,2.224,2.153,3.62,2.082C601.424,1011.239,604.074,1006.294,605.636,1002.106z M574.498,1119.96
		c2.768-0.166,5.182-3.289,3.407-5.939c-7.619-11.333-24.725-16.823-37.62-18.195c-6.317-0.662-7.287,9.204-1.467,10.86
		C550.294,1109.927,562.289,1120.764,574.498,1119.96z M560.775,974.375c3.289-2.319,2.366-8.021-2.153-7.974
		c-10.387,0.142-20.821,3.573-30.948,5.702c-12.611,2.674-25.246,4.401-38.165,4.708c-24.583,0.568-46.209-7.903-69.988-12.233
		c-5.205-0.946-9.535,6.72-3.904,9.251c23.022,10.387,46.28,17.533,71.763,17.58C510.425,991.435,541.492,987.933,560.775,974.375z
		 M535.032,938.814c3.336-2.271,2.129-7.453-2.059-7.642c-12.611-0.497-25.364,2.437-38.094,2.153
		c-13.629-0.308-27.328-2.484-40.058-7.382c-4.85-1.846-8.21,6.128-3.549,8.423c13.179,6.507,27.115,9.89,41.737,11.026
		C506.285,946.432,523.557,946.622,535.032,938.814z M529.732,1023.613c2.745-2.248,0.45-7.027-2.863-6.909
		c-10.505,0.379-20.869,3.076-31.445,3.525c-11.523,0.521-23.164-0.402-34.426-2.958c-6.294-1.42-8.281,7.075-2.603,9.417
		C479.572,1035.467,510.615,1039.253,529.732,1023.613z M380.055,932.993c1.68-4.874,2.981-9.654,2.035-14.788
		c-0.757-4.117-7.264-4.945-9.086-1.207c-1.987,4.093-3.005,8.542-4.59,12.777c-1.514,4.07-3.975,8.636-2.626,13.013
		c0.875,2.91,4.117,4.212,6.767,2.768C376.885,943.167,378.541,937.394,380.055,932.993z M371.253,966.993
		c1.159-5.442-5.513-7.974-8.66-3.667c-3.029,4.164-3.052,9.512-3.431,14.457c-0.237,2.981-0.663,6.696,0.166,9.583
		c0.521,1.846,2.082,3.62,4.022,4.022c0.071,0.024,0.142,0.024,0.213,0.071c1.491,0.592,2.91,0.284,4.022-0.544
		c1.372-0.733,2.508-2.058,2.863-3.549c0.71-2.768,0.237-5.915,0.166-8.731C370.543,974.754,370.449,970.803,371.253,966.993z
		 M351.993,916.478c2.413-4.259-3.502-9.204-6.933-5.371c-6.672,7.477-8.376,16.089-7.903,25.861c0.355,7.335,11.191,7.382,11.428,0
		C348.799,929.728,348.255,923.032,351.993,916.478z"/>
	<path fill="#F9F4D7" d="M643.8,813.483c0.568,8.778-0.899,17.793-4.85,26.476c-12.777,28.085-47.724,37.999-75.359,43.938
		c-31.492,6.767-62.914,9.89-95.069,7.264c-21.129-1.727-44.009-5.134-65.516-10.908c-1.159-1.278-3.171-2.129-4.779-1.467
		c-0.095,0.047-0.189,0.071-0.284,0.118c-7.453-2.153-14.741-4.614-21.673-7.429c-17.367-7.051-33.835-19.402-42.66-36.319
		c-4.969-9.535-6.388-20.325-3.928-30.783c0.923-3.951,2.461-7.548,4.212-11.002c5.347,27.328,31.753,53.165,59.861,51.154
		c4.022-0.284,6.696-6.365,2.271-8.4c-12.706-5.844-24.915-9.985-35.089-20.183c-10.269-10.269-16.752-24.299-14.196-38.993
		c2.035-11.688,9.488-21.342,18.266-29.055c-2.981,4.354-5.466,9.109-7.311,14.362c-13.629,38.354,31.587,61.849,62.204,68.024
		c23.59,4.779,49.214,5.205,73.182,5.56c27.068,0.402,54.49-2.106,79.784-12.327c20.727-8.376,41.785-22.336,50.161-44.032
		c0.781-1.988,1.325-3.951,1.751-5.892c6.909,6.72,12.233,14.764,15.474,23.471c-0.071,0.095-0.142,0.189-0.213,0.284
		c-8.234,13.297-17.816,24.844-31.09,33.338c-12.516,8.021-26.524,12.611-39.348,19.828c-5.134,2.887-1.349,9.559,3.738,8.825
		C599.91,855.528,630.74,838.421,643.8,813.483z M469.043,874.693c3.691-0.686,2.271-5.56-0.804-5.962
		c-16.279-2.129-34-0.591-49.025-8.139c-5.111-2.555-9.535,4.803-4.519,7.713C431.351,877.911,450.564,878.124,469.043,874.693z"/>
	<path d="M635.543,440.425c0.828,11.901,3.502,24.938,1.278,36.698c-0.781,4.212-6.175,3.123-7.453,0
		c-4.448-10.884-4.235-25.057-4.85-36.698c-0.71-13.345-0.875-26.689-0.237-40.034c0.308-6.601,10.529-6.649,10.316,0
		C634.194,413.76,634.596,427.104,635.543,440.425z"/>
	<path d="M628.35,929.018c2.035,8.4,4.519,20.916-1.396,28.204c-1.065,1.301-3.738,1.349-4.803,0
		c-5.537-6.956-2.437-17.201-3.833-25.459C617.23,925.303,626.741,922.393,628.35,929.018z"/>
	<path d="M628.492,982.704c0.662,4.803,0.852,9.89-0.875,14.528c-1.538,4.188-4.212,9.109-9.157,9.393
		c-1.396,0.071-2.981-0.828-3.62-2.082c-1.727-3.36-0.331-6.672,0.781-10.008c1.136-3.478,2.271-6.72,2.366-10.411
		C618.129,978.327,627.64,976.576,628.492,982.704z"/>
	<path fill="#2E3A59" d="M630.953,115.612c-4.141,4.283-5.205,11.688-5.679,17.178c-0.26,3.147-0.095,6.696,0.733,10.008
		c-5.726-1.846-11.262-4.141-15.995-7.24c1.041-2.011-0.852-21.91,1.349-29.623C617.466,109.72,624.067,112.914,630.953,115.612z"/>
	<path fill="#EEDD59" d="M623.594,677.529c-1.254,5.726-3.525,11.168-5.915,16.562c-0.45-0.26-0.946-0.497-1.538-0.615
		c-4.495-0.946-8.873-1.183-13.108-3.1c-3.786-1.727-7.548-4.685-11.712-5.276c-2.555-0.379-5.347,1.538-4.472,4.448
		c2.91,9.441,16.846,15.45,26.642,14.22c-1.349,3.407-2.555,6.862-3.36,10.434c-13.51,2.082-34.568,3.644-42.187-10.269
		c-6.696-12.185,3.1-25.79,8.305-37.739C586.447,678.381,607.6,680.983,623.594,677.529z"/>
	<path d="M606.369,933.892c2.035,8.4,4.519,20.916-1.396,28.204c-1.065,1.325-3.738,1.349-4.803,0
		c-5.537-6.956-2.437-17.201-3.833-25.435C595.249,930.177,604.76,927.267,606.369,933.892z"/>
	<path d="M606.511,987.578c0.663,4.827,0.852,9.89-0.875,14.528c-1.562,4.188-4.212,9.133-9.157,9.417
		c-1.396,0.071-2.981-0.852-3.62-2.082c-1.727-3.36-0.331-6.672,0.781-10.032c1.136-3.478,2.271-6.696,2.366-10.411
		C596.148,983.225,605.659,981.45,606.511,987.578z"/>
	<path fill="#F9F4D7" d="M600.265,754.166c14.315,4.992,10.813,19.236,2.035,30.475c-3.147,4.022-6.838,7.571-10.884,10.742
		C595.012,781.683,597.26,767.842,600.265,754.166z"/>
	<path fill="#C1BCA3" d="M576.013,725.726c6.625,2.248,13.936,2.934,21.2,2.792c-11.759,20.561-13.747,45.783-21.153,68.048
		c-1.041,3.147,0.095,5.655,2.106,7.193c-8.565,4.448-17.816,7.69-26.689,10.079c-0.142,0.024-0.26,0.047-0.379,0.071
		c6.175-9.914,10.079-21.673,13.155-32.344C569.553,763.251,572.322,744.394,576.013,725.726z"/>
	<path d="M577.906,1114.021c1.775,2.65-0.639,5.773-3.407,5.939c-12.209,0.804-24.205-10.032-35.68-13.274
		c-5.821-1.656-4.85-11.523,1.467-10.86C553.18,1097.198,570.287,1102.687,577.906,1114.021z"/>
	<path d="M558.622,966.402c4.519-0.047,5.442,5.655,2.153,7.974c-19.283,13.558-50.35,17.059-73.395,17.036
		c-25.483-0.047-48.741-7.193-71.763-17.58c-5.631-2.532-1.301-10.198,3.904-9.251c23.779,4.33,45.405,12.8,69.988,12.233
		c12.919-0.308,25.554-2.035,38.165-4.708C537.801,969.975,548.235,966.544,558.622,966.402z"/>
	<path fill="#C1BCA3" d="M561.177,736.373c-1.42,8.329-2.839,16.657-4.472,24.938c-11.073-3.88-24.229-4.07-34.119,1.751
		c-8.873-15.19-26.878-11.523-41.43-1.491c-11.428-14.977-33.693-11.996-43.133,4.424c-5.868-4.33-12.091-5.868-20.254-2.153
		c-6.838,3.1-12.706,8.873-15.285,15.853c-6.246-2.839-12.493-4.283-19.141,0.379c-3.194,2.248-5.655,5.513-7.075,9.157
		c-5.537-7.879-6.885-17.485-0.237-28.866c16.562-28.44,53.355-37.62,83.901-38.874C494.36,720.094,528.194,727.264,561.177,736.373
		z M465.47,741.862c3.218-0.662,3.076-5.655,0-6.388c-22.998-5.513-54.774,0.828-72.047,17.533
		c-3.336,3.218,0.899,7.974,4.732,6.128c11.026-5.276,21.602-10.056,33.622-12.516C442.921,744.347,454.35,744.063,465.47,741.862z"
		/>
	<path fill="#617F3B" d="M553.653,774.916c-3.88,15.427-9.606,28.913-17.84,42.211c-16.894,2.697-34.142,2.863-51.225,2.224
		c-18.313-0.686-37.668-0.97-55.887-4.046l1.017-6.317c1.585,0.237,3.383-0.473,3.857-2.271c2.413-9.37,14.457-9.701,20.727-4.07
		c2.271,2.035,5.608,1.656,7.287-0.946c2.035-3.194,13.345-17.485,16.326-7.098c0.852,3.005,4.708,4.921,7.5,3.052
		c4.614-3.1,19.567-9.015,22.312-1.585c1.869,5.087,8.542,3.999,9.133-1.23c1.893-16.752-19.567-13.676-31.492-8.66
		c-1.822-3.1-4.141-4.803-6.672-5.466l0.355-4.567c1.538,0.118,3.147-0.379,4.614-1.633c10.505-9.062,25.317-16.397,29.576,1.798
		c1.42,6.104,9.251,6.104,12.398,1.609C531.223,769.971,545.443,771.391,553.653,774.916z"/>
	<path d="M532.974,931.171c4.188,0.189,5.395,5.371,2.059,7.642c-11.475,7.808-28.748,7.619-42.021,6.578
		c-14.622-1.136-28.558-4.519-41.737-11.026c-4.661-2.295-1.301-10.269,3.549-8.423c12.729,4.898,26.429,7.075,40.058,7.382
		C507.61,933.608,520.363,930.674,532.974,931.171z"/>
	<path d="M526.869,1016.704c3.313-0.118,5.608,4.661,2.863,6.909c-19.118,15.64-50.161,11.854-71.337,3.076
		c-5.679-2.342-3.691-10.837,2.603-9.417c11.262,2.555,22.904,3.478,34.426,2.958
		C506.001,1019.78,516.364,1017.083,526.869,1016.704z"/>
	<path d="M485.369,786.179c11.925-5.016,33.385-8.092,31.492,8.66c-0.592,5.229-7.264,6.317-9.133,1.23
		c-2.745-7.43-17.698-1.514-22.312,1.585c-2.792,1.869-6.649-0.047-7.5-3.052c-2.981-10.387-14.291,3.904-16.326,7.098
		c-1.68,2.603-5.016,2.981-7.287,0.946c-6.27-5.631-18.313-5.3-20.727,4.07c-0.473,1.798-2.271,2.508-3.857,2.271
		c-1.514-0.237-2.839-1.325-2.65-3.171c1.633-15.143,17.485-18.739,29.221-12.753c5.892-7.619,15.143-14.244,22.407-12.351
		C481.228,781.375,483.547,783.079,485.369,786.179z"/>
	<path fill="#617F3B" d="M479.051,776.146l-0.355,4.567c-7.264-1.893-16.515,4.732-22.407,12.351
		c-11.736-5.986-27.588-2.39-29.221,12.753c-0.189,1.846,1.136,2.934,2.65,3.171l-1.017,6.317c-1.491-0.237-2.981-0.521-4.448-0.804
		c-12.398-2.437-29.316-8.258-40.602-17.485c1.065-3.431,2.106-4.779,6.53-7.311c6.388-3.667,7.075-2.058,13.226,0.946
		c3.123,1.514,7.051-0.308,7.051-4.07c0.024-6.436,5.182-12.587,11.191-14.386c6.743-2.011,10.553,1.23,14.693,5.844
		c2.768,3.052,7.264,1.112,8.494-2.248c4.638-12.611,22.856-19.165,28.913-3.904C474.769,774.419,476.803,775.957,479.051,776.146z"
		/>
	<path d="M468.238,868.731c3.076,0.402,4.496,5.276,0.804,5.962c-18.479,3.431-37.691,3.218-54.349-6.388
		c-5.016-2.91-0.592-10.269,4.519-7.713C434.238,868.139,451.96,866.601,468.238,868.731z"/>
	<path d="M465.47,735.474c3.076,0.733,3.218,5.726,0,6.388c-11.121,2.2-22.549,2.484-33.693,4.756
		c-12.02,2.461-22.596,7.24-33.622,12.516c-3.833,1.846-8.068-2.91-4.732-6.128C410.696,736.302,442.472,729.961,465.47,735.474z"/>
	<path fill="#93684C" d="M429.648,1081.558c6.814,3.454,14.409,5.56,22.241,6.838c-9.275,6.601-17.651,14.977-26.737,21.342
		c-16.302,11.452-34.97,18.692-53.994,23.968c-1.964-8.352-4.046-16.397-4.685-25.27c-0.804-10.742-0.97-21.507-2.342-32.178
		c-2.011-15.285-5.229-30.144-9.606-44.695c7.832,7.24,16.61,13.983,25.908,18.006l-2.082,4.472c-2.958,0-6.057,1.987-6.507,5.797
		c-1.917,16.184,2.981,31.871,4.85,47.818c0.189,1.704,0.875,3.123,1.822,4.212c-1.325,3.691,2.768,8.565,6.578,5.726
		c7.997-5.915,16.846-10.624,25.554-15.403c6.223-3.407,16.468-6.412,18.313-13.936c0.308-1.278-0.071-2.65-0.97-3.549
		L429.648,1081.558z"/>
	<path d="M427.992,1084.705c0.899,0.899,1.278,2.271,0.97,3.549c-1.846,7.524-12.091,10.529-18.313,13.936
		c-8.707,4.779-17.556,9.488-25.554,15.403c-3.809,2.839-7.903-2.035-6.578-5.726c-0.946-1.089-1.633-2.508-1.822-4.212
		c-1.869-15.947-6.767-31.634-4.85-47.818c0.45-3.809,3.549-5.797,6.507-5.797c2.863,0,5.56,1.869,5.56,5.797
		c-0.047,13.818,4.779,27.139,6.578,40.791c4.046-2.981,8.329-5.655,12.942-8.068c6.459-3.407,15.521-10.647,23.022-8.731
		C427.069,1083.995,427.566,1084.303,427.992,1084.705z"/>
	<path d="M382.09,918.205c0.946,5.134-0.355,9.914-2.035,14.788c-1.514,4.401-3.171,10.174-7.5,12.564
		c-2.65,1.443-5.891,0.142-6.767-2.768c-1.349-4.377,1.112-8.944,2.626-13.013c1.585-4.235,2.603-8.683,4.59-12.777
		C374.826,913.26,381.333,914.088,382.09,918.205z"/>
	<path d="M362.593,963.326c3.147-4.306,9.819-1.775,8.66,3.667c-0.804,3.809-0.71,7.761-0.639,11.641
		c0.071,2.816,0.544,5.962-0.166,8.731c-0.355,1.491-1.491,2.816-2.863,3.549c-1.112,0.828-2.532,1.136-4.022,0.544
		c-0.071-0.047-0.142-0.047-0.213-0.071c-1.94-0.402-3.502-2.177-4.022-4.022c-0.828-2.887-0.402-6.601-0.166-9.583
		C359.541,972.838,359.565,967.49,362.593,963.326z"/>
	<path d="M345.061,911.107c3.431-3.833,9.346,1.112,6.933,5.371c-3.738,6.554-3.194,13.25-3.407,20.49
		c-0.237,7.382-11.073,7.335-11.428,0C336.685,927.196,338.389,918.584,345.061,911.107z"/>
</g>
</svg>
